<?xml version="1.0" standalone="no"?><!DOCTYPE svg PUBLIC "-//W3C//DTD SVG 1.1//EN" "http://www.w3.org/Graphics/SVG/1.1/DTD/svg11.dtd"><svg t="1515898360853" class="icon" style="" viewBox="0 0 1024 1024" version="1.1" xmlns="http://www.w3.org/2000/svg" p-id="6010" xmlns:xlink="http://www.w3.org/1999/xlink" width="20" height="20"><defs><style type="text/css"></style></defs><path d="M1023.872016 576.055993V512.063992h-193.255843a370.193726 370.193726 0 0 0-71.671041-192.231971h161.899762L990.916135 39.611049l-62.07224-15.550057-57.912761 231.715036h-174.634171l-2.687664-2.047744A191.720035 191.720035 0 0 0 512 0.063992a191.720035 191.720035 0 0 0-181.609299 253.664292l-2.687664 2.047744H153.068866L95.156105 24.060992l-62.07224 15.550057 70.071241 280.220972h161.899762A370.193726 370.193726 0 0 0 193.383827 512.063992H0.127984v63.992001h193.319835c3.775528 45.626297 15.486064 88.820897 33.659793 127.728034H103.155106L33.083865 984.004999l62.07224 15.550057 57.912761-231.715036h112.369954c58.680665 78.006249 147.373578 127.728034 246.625172 127.728034s187.944507-49.721785 246.625172-127.728034h112.369954l57.912761 231.715036 62.07224-15.550057-70.071241-280.220972h-123.952506A377.744782 377.744782 0 0 0 830.680165 576.055993h193.319835z" fill="" p-id="6011"></path></svg>