<?xml version="1.0" standalone="no"?><!DOCTYPE svg PUBLIC "-//W3C//DTD SVG 1.1//EN" "http://www.w3.org/Graphics/SVG/1.1/DTD/svg11.dtd"><svg t="1515898384467" class="icon" style="" viewBox="0 0 1025 1024" version="1.1" xmlns="http://www.w3.org/2000/svg" p-id="6766" xmlns:xlink="http://www.w3.org/1999/xlink" width="20.01953125" height="20"><defs><style type="text/css"></style></defs><path d="M186.819 424.513c-5.587 0-10.95-3.131-13.533-8.503-3.591-7.467-0.445-16.43 7.022-20.020l220.017-105.755c4.097-1.969 8.869-1.973 12.975-0.009l211.58 101.25 211.495-205.209c5.953-5.77 15.436-5.63 21.211 0.319 5.766 5.948 5.625 15.441-0.319 21.211l-218.995 212.489c-4.505 4.373-11.255 5.48-16.917 2.766l-214.519-102.661-213.53 102.642c-2.095 1.008-4.308 1.481-6.488 1.481z" p-id="6767"></path><path d="M193.377 780.72c-8.283 0-15-6.717-15-15v-133.889c0-8.288 6.717-15 15-15s15 6.717 15 15v133.889c0 8.287-6.717 15-15 15z" p-id="6768"></path><path d="M413.375 780.72c-8.283 0-15-6.717-15-15v-246.389c0-8.283 6.717-15 15-15s15 6.717 15 15v246.389c0 8.287-6.717 15-15 15z" p-id="6769"></path><path d="M633.383 780.72c-8.288 0-15-6.717-15-15v-133.889c0-8.288 6.717-15 15-15s15 6.717 15 15v133.889c0 8.287-6.717 15-15 15z" p-id="6770"></path><path d="M853.372 780.72c-8.287 0-15-6.717-15-15v-307.158c0-8.283 6.717-15 15-15s15 6.717 15 15v307.158c0 8.287-6.713 15-15 15z" p-id="6771"></path><path d="M77 850.433c-8.283 0-15-6.722-15-14.995v-646.875c0-8.283 6.717-15 15-15s15 6.717 15 15v646.875c0 8.278-6.717 14.995-15 14.995z" p-id="6772"></path><path d="M948.87 850.433h-871.87c-8.283 0-15-6.722-15-14.995 0-8.287 6.717-15.005 15-15.005h871.87c8.287 0 13.134 6.722 13.134 15.005 0 8.278-4.847 14.995-13.134 14.995z" p-id="6773"></path><path d="M853.372 203.562h-120c-8.287 0-15-6.717-15-15s6.717-15 15-15h120c8.287 0 15 6.717 15 15s-6.713 15-15 15z" p-id="6774"></path><path d="M853.372 323.562c-8.287 0-15-6.717-15-15v-120c0-8.283 6.717-15 15-15s15 6.717 15 15v120c0 8.283-6.713 15-15 15z" p-id="6775"></path></svg>