<?xml version="1.0" standalone="no"?><!DOCTYPE svg PUBLIC "-//W3C//DTD SVG 1.1//EN" "http://www.w3.org/Graphics/SVG/1.1/DTD/svg11.dtd"><svg t="1515898934633" class="icon" style="" viewBox="0 0 1024 1024" version="1.1" xmlns="http://www.w3.org/2000/svg" p-id="21791" xmlns:xlink="http://www.w3.org/1999/xlink" width="20" height="20"><defs><style type="text/css"></style></defs><path d="M629.76 857.6c-59.392-42.496-151.04-19.968-207.872-95.232 0 0-20.992-24.064 26.624-81.92s51.712-151.04 39.936-222.72-79.36-119.296-149.504-119.296-137.728 47.616-149.504 119.296c-11.776 71.68-8.192 164.352 39.936 222.72 47.616 58.368 26.624 81.92 26.624 81.92-56.832 75.264-148.48 52.736-207.872 95.232-59.392 42.496-45.056 139.264-45.056 139.264H675.84c-1.024-0.512 13.312-96.768-46.08-139.264z" fill="#333333" p-id="21792"></path><path d="M968.192 830.464c-71.168-50.688-180.224-23.552-248.32-113.664 0 0-25.088-28.672 31.744-97.792s61.44-180.224 47.616-265.728c-14.336-85.504-94.72-142.336-178.688-142.336s-164.352 56.832-178.688 142.336c-14.336 85.504-9.728 196.096 47.616 265.728s31.744 97.792 31.744 97.792c-68.096 90.112-177.152 63.488-248.32 113.664-71.168 50.688-53.76 165.888-53.76 165.888H1021.952S1039.36 881.152 968.192 830.464z" fill="#333333" p-id="21793"></path></svg>