<?xml version="1.0" standalone="no"?><!DOCTYPE svg PUBLIC "-//W3C//DTD SVG 1.1//EN" "http://www.w3.org/Graphics/SVG/1.1/DTD/svg11.dtd"><svg t="1520927693223" class="icon" style="" viewBox="0 0 1024 1024" version="1.1" xmlns="http://www.w3.org/2000/svg" p-id="2292" xmlns:xlink="http://www.w3.org/1999/xlink" width="20" height="20"><defs><style type="text/css"></style></defs><path d="M838.144 640.512c-3.584-3.072-7.168-6.144-11.264-9.216-31.744-24.064-43.52-50.176-36.864-93.696 23.04-159.232-106.496-289.792-236.544-304.128-163.84-17.408-299.52 85.504-320.512 242.688-24.576 188.416 141.824 345.6 328.704 309.76 20.992-4.096 35.328 0.512 49.152 15.872 9.728 10.24 22.016 19.456 37.376 32.256-43.008 22.016-43.52 57.344-40.96 93.696 2.048 35.84-4.096 69.632-39.936 83.456-38.912 15.872-81.92 18.432-118.272-4.608-16.384-10.752-25.088-37.376-31.744-58.368-4.608-15.872-0.512-35.328-1.024-52.736-0.512-28.16-13.312-48.64-39.424-59.392-25.6-11.264-49.664-6.144-70.144 13.312-12.8 12.288-24.576 25.088-37.888 36.864-25.088 22.528-60.416 29.696-86.016 11.264-22.528-16.896-43.008-36.352-59.904-58.88-17.92-24.576-11.264-61.952 11.264-86.016 11.776-12.8 25.088-24.576 37.376-36.864 17.92-17.92 24.064-40.448 16.384-65.024-7.168-24.064-28.16-41.984-53.248-44.544-20.48-3.072-40.96-2.048-61.44-3.072-44.544-2.048-69.632-28.16-72.192-71.68-0.512-13.312-0.512-27.648 0-40.96C2.56 444.928 31.232 416.768 76.8 415.232c16.384-0.512 33.28 0.512 49.664-0.512 27.648-1.536 49.152-14.336 59.392-40.448 9.728-25.6 4.608-49.664-15.872-69.632-11.264-10.752-22.016-22.016-32.768-33.28-5.12-4.608-9.216-10.24-12.8-15.872-24.064-39.936-9.728-79.36 44.544-123.904 31.744-25.6 69.632-24.576 100.864 3.584 12.8 11.776 25.088 24.576 37.888 36.864 20.48 18.432 45.056 23.552 71.168 12.288 24.064-10.752 37.888-29.696 37.376-57.344 0-18.944 0-36.864 1.024-55.296 2.56-35.84 25.6-64 60.928-69.12 23.04-3.584 46.592-3.584 69.632 0 32.768 4.608 56.832 33.792 58.368 67.584 1.024 19.456-1.024 39.424 0.512 58.368 2.048 26.624 14.848 48.128 41.472 58.368 27.136 10.752 49.664 3.584 69.632-15.872 8.192-8.192 16.384-16.896 24.576-25.088 5.12-5.12 11.264-11.264 16.896-15.872 39.424-29.696 82.432-17.408 130.048 37.376 28.672 33.28 27.136 73.216-4.608 104.448-12.288 12.288-25.6 24.576-36.352 37.888-16.896 20.992-23.04 46.08-9.728 71.168 11.776 23.552 32.768 35.84 59.904 35.84 16.384 0 33.28-0.512 49.664 0 39.936 1.536 68.096 25.088 72.704 62.976 3.072 20.992 3.072 43.52 0 64.512-5.12 37.376-34.304 61.44-72.704 62.976-11.776 0.512-23.552 0.512-35.328 0-29.696-2.56-54.784 7.168-74.752 33.28zM313.856 459.776c24.064 25.088 48.128 50.688 72.704 75.776 47.104 47.104 108.032 48.64 153.6 4.096 47.104-45.568 45.568-105.984-3.072-154.112-25.088-24.576-51.712-47.616-74.752-75.264 63.488-18.432 120.832-8.704 171.52 27.648 81.408 56.832 112.128 152.576 78.336 245.76-6.656 17.408-1.024 26.624 9.728 37.376 60.928 59.392 121.344 118.784 181.76 178.688 34.304 34.304 32.768 75.264-3.584 107.008-28.672 25.088-65.024 24.064-94.208-4.608-60.928-59.392-121.344-119.296-181.248-179.712-13.824-13.824-24.576-17.408-45.056-10.752-80.384 26.624-153.088 10.752-214.016-47.104-56.832-54.272-73.728-122.88-60.416-198.656 3.072-2.56 5.632-4.096 8.704-6.144z m540.672 356.864c-20.48 2.56-33.792 12.8-35.84 34.304-1.536 19.456 16.384 37.376 36.352 37.376 19.968 0 35.84-15.872 35.84-35.84v-1.536c-1.024-23.04-14.336-32.768-36.352-34.304z" p-id="2293" fill="#ffffff"></path></svg>